<?xml version="1.0" encoding="UTF-8"?><svg xmlns="http://www.w3.org/2000/svg" viewBox="0 0 374.86 357.81"><defs><style>.e{fill:#f47d53;}.f{fill:#c02426;}.g{fill:#e25534;}.h{fill:#f1f2f2;}.i{fill:#02454a;}.j{fill:#f7941d;}.k{fill:#fed29a;}</style></defs><g id="a"><path class="f" d="M86.77,198.29c-3.68,4.44-6.74,8.76-9.13,12.91-.65,1.12-1.25,2.23-1.8,3.32-.58-.07-1.16-.14-1.73-.23-.44-.06-.88-.13-1.31-.2l-.51-.09c-.52-.09-1.04-.19-1.55-.29-.51-.1-1.01-.22-1.51-.33-.38-.09-.76-.18-1.13-.28-.3-.08-.6-.16-.89-.24-.41-.11-.81-.23-1.21-.36-.39-.13-.79-.25-1.17-.39-.33-.11-.65-.23-.97-.35-.63-.24-1.24-.5-1.84-.76l-.06-.03c-.76-.34-1.48-.7-2.16-1.08-.12-.07-.24-.13-.36-.2-.26-.15-.52-.3-.77-.46-.5-.31-.98-.64-1.45-.97-.23-.17-.46-.34-.68-.51-.27-.21-.53-.43-.78-.64-.07-.06-.13-.12-.2-.17-.29-.26-.58-.53-.85-.8-.34-.33-.66-.68-.97-1.03-.46-.53-.88-1.08-1.27-1.65h0l-1.15-1.96c-1.27-2.52-1.89-5.31-1.91-8.31,0-.27,.01-.53,.02-.81,.29-10.42,7.63-23.37,20.35-37.16,.02,.1,.03,.2,.05,.3,2.69,15.58,8.57,30.07,16.94,42.77Z"/></g><g id="b"><g><path class="e" d="M294.87,136.03c0,62.61-50.75,113.36-113.36,113.36-32.1,0-61.08-13.34-81.69-34.78-.11-.1-.21-.2-.3-.3-4.71-4.93-8.99-10.29-12.75-16.02-8.37-12.7-14.25-27.19-16.94-42.77-1.11-6.33-1.68-12.84-1.68-19.49,0-62.61,50.75-113.36,113.36-113.36,33.8,0,64.15,14.79,84.91,38.26,9.48,10.7,16.96,23.22,21.86,36.96,1.78,4.96,3.22,10.07,4.3,15.33,.01,.09,.03,.18,.05,.27,1.47,7.28,2.24,14.82,2.24,22.54Z"/><path class="e" d="M181.51,278.89h34.28v-10.67s-1.95-23.81,19.86-32.57h-54.14v43.24Z"/><path class="e" d="M181.51,278.89h-34.28v-10.67s1.95-23.81-19.86-32.57h54.14v43.24Z"/></g><g><ellipse class="k" cx="181.51" cy="137.14" rx="101.95" ry="104.81"/><path class="k" d="M181.51,269.22h-26.28v-9.86c0-9.97-5.9-23.75-22.41-30.11h48.68v39.97Z"/><path class="k" d="M181.51,269.22h26.28v-9.86c0-9.97,5.9-23.75,22.41-30.11h-48.68v39.97Z"/></g><g><ellipse class="h" cx="181.51" cy="138.14" rx="93.28" ry="97.13"/><path class="h" d="M181.51,260.55h22.16v-9.14c.11-8.57,8.76-21.44,22.38-27.91h-44.55v37.05Z"/><path class="h" d="M181.51,260.55h-22.16v-9.14c-.11-8.57-8.76-21.44-22.38-27.91h44.55v37.05Z"/></g></g><g id="c"><path class="f" d="M302.13,90.48l3.33,1.08s-5.41,16.76-22.2,32.12c-20.03,18.34-48.19,40.27-83.19,57.86-35.01,17.59-69.16,28.62-96.08,32.23-10.65,1.43-20.16,1.7-28.15,.75-.58-.07-1.16-.14-1.73-.23-.44-.06-.88-.13-1.31-.2l-.51-.09c-.52-.09-1.04-.19-1.55-.29-.51-.1-1.01-.22-1.51-.33-.38-.09-.76-.18-1.13-.28-.3-.08-.6-.16-.89-.24-.41-.11-.81-.23-1.21-.36-.39-.13-.79-.25-1.17-.39-.33-.11-.65-.23-.97-.35-.63-.24-1.24-.5-1.84-.76l-.06-.03c-.76-.34-1.48-.7-2.16-1.08-.12-.07-.24-.13-.36-.2-.26-.15-.52-.3-.77-.46-.5-.31-.98-.64-1.45-.97-.23-.17-.46-.34-.68-.51-.27-.21-.53-.43-.78-.64-.07-.06-.13-.12-.2-.17-.29-.26-.58-.53-.85-.8-.34-.33-.66-.68-.97-1.03-.46-.53-.88-1.08-1.27-1.65l2.9-1.97c3.42,5.04,10.64,8.35,20.88,9.56,.46,.05,.92,.11,1.39,.15,7.37,.73,16.06,.43,25.89-.89,27.71-3.72,61.44-15.05,94.97-31.89,29.1-14.63,56.82-33.91,82.4-57.32,15.84-14.49,21.18-30.46,21.23-30.62Z"/><path class="j" d="M308.79,92.63c-.05,.15-.33,1-.9,2.39l-2.43-3.46,3.33,1.07Z"/><polygon class="f" points="331.94 135.7 293.68 80.36 295.49 77.34 334.95 133.58 331.94 135.7"/><path class="g" d="M326.62,121.72c-6.5,22.67-20.47,36.68-30.01,46.79-18.64,19.76-39.51,32.74-74.51,50.33-35.01,17.59-69.16,28.62-96.08,32.23-6.98,.94-13.48,1.38-19.38,1.3-.44,0-.88-.01-1.31-.03-.4-.01-.8-.02-1.2-.04-.9-.03-1.77-.08-2.63-.14-.83-.06-1.64-.13-2.44-.21-1.46-.14-2.87-.33-4.23-.56-.33-.05-.65-.11-.98-.17-.7-.13-1.39-.26-2.06-.42-.42-.09-.84-.19-1.25-.3-.19-.04-.38-.09-.56-.14-.25-.06-.5-.13-.74-.2-1.77-.5-3.43-1.08-4.96-1.76-.24-.1-.46-.2-.69-.31-.25-.11-.49-.23-.73-.35s-.47-.24-.71-.37c-.23-.12-.46-.25-.68-.38-.74-.41-1.43-.86-2.09-1.33l-.45-.33c-.4-.29-.78-.6-1.14-.92-.18-.16-.36-.32-.54-.48-.17-.16-.35-.33-.51-.49-.09-.08-.17-.16-.24-.24-.15-.15-.29-.3-.42-.45-.16-.17-.32-.35-.47-.53-.09-.12-.19-.23-.28-.35-.3-.37-.58-.74-.84-1.13l-1.14-1.94-15.26-25.84-5.62-9.5c.39,.57,.81,1.12,1.27,1.65,.31,.35,.63,.7,.97,1.03,.27,.27,.56,.54,.85,.8,.07,.05,.13,.11,.2,.17,.25,.22,.51,.43,.78,.64,.22,.17,.44,.35,.68,.51,.46,.34,.95,.66,1.45,.97,.25,.16,.51,.31,.77,.46,.12,.07,.24,.13,.36,.2,.68,.38,1.4,.74,2.16,1.08l.06,.03c.6,.26,1.21,.52,1.84,.76,.32,.12,.64,.24,.97,.35,.38,.14,.78,.26,1.17,.39,.4,.13,.8,.25,1.21,.36,.29,.08,.59,.16,.89,.24,.37,.1,.75,.19,1.13,.28,.5,.12,1,.23,1.51,.33,.51,.11,1.03,.2,1.55,.29l.51,.09c.43,.07,.87,.14,1.31,.2,.57,.09,1.15,.16,1.73,.23,7.99,.95,17.5,.68,28.15-.75,26.92-3.61,61.07-14.64,96.08-32.23,35-17.59,63.16-39.52,83.19-57.86,16.79-15.36,22.2-32.12,22.2-32.12l2.43,3.46,18.73,26.7Z"/><polygon class="g" points="323.62 85.39 295.49 77.34 334.95 133.58 323.62 85.39"/></g><g id="d"><g><path class="i" d="M102.4,144.88c-.71-1.57-.06-3.49,1.46-4.3,9.89-5.18,19.81-10.26,29.79-15.25,7.82-3.87,14.61-5.48,20.36-4.89,5.74,.59,9.48,2.77,11.17,6.49,2.17,4.76,.32,10.02-5.54,15.75,5.74-1.43,10.59-1.51,14.54-.27,3.96,1.24,6.7,3.54,8.23,6.9,2.17,4.77,1.64,9.71-1.61,14.74-3.25,5.04-9.38,9.51-18.42,13.31-11.7,4.92-23.47,9.66-35.32,14.21-1.61,.62-3.49-.16-4.2-1.72-6.82-14.99-13.63-29.98-20.45-44.96Zm36.62,3.07c.16,.35,.57,.51,.9,.35,2.75-1.36,4.7-2.92,5.83-4.7,1.22-1.91,1.44-3.7,.68-5.38-.75-1.65-2.23-2.62-4.44-2.89-2.06-.25-4.48,.26-7.28,1.52-.33,.15-.48,.58-.32,.93,1.85,4.07,2.78,6.1,4.63,10.17Zm10.22,22.46c.16,.35,.57,.52,.9,.37,4.88-2.13,8.88-4.46,10.61-6.36,1.8-1.98,2.14-4.22,1.02-6.68-.86-1.9-2.61-2.92-5.25-3.06-2.49-.14-8.47,1.89-12.13,3.46-.33,.14-.47,.55-.31,.9,2.07,4.55,3.1,6.82,5.17,11.37Z"/><path class="i" d="M174.68,109.69c-.77-1.7-.13-3.65,1.44-4.35,10.21-4.51,20.44-8.91,30.73-13.23,8.06-3.34,15.03-4.55,20.83-3.83,5.8,.72,9.47,2.78,11.05,6.26,2.03,4.46,.04,9.39-5.88,14.97,5.73-1.43,10.54-1.6,14.4-.55,3.87,1.05,6.49,3.09,7.9,6.19,2,4.4,1.37,9.1-1.84,14.21-3.21,5.11-9.15,9.98-17.92,14.38-11.34,5.69-22.77,11.2-34.29,16.53-1.56,.72-3.46-.07-4.23-1.77-7.4-16.26-14.8-32.53-22.19-48.79Zm37.49,4.92c.16,.36,.58,.52,.91,.36,2.77-1.32,4.73-2.86,5.88-4.6,1.24-1.86,1.48-3.62,.73-5.27-.74-1.63-2.22-2.6-4.45-2.92-2.08-.3-4.55,.11-7.4,1.26-.34,.14-.49,.55-.33,.91,1.87,4.1,2.8,6.15,4.66,10.25Zm10.3,22.64c.16,.35,.56,.51,.89,.35,4.79-2.34,8.7-4.84,10.4-6.81,1.77-2.05,2.12-4.26,1.03-6.66-.84-1.84-2.56-2.79-5.17-2.88-2.47-.08-8.41,2.01-12.06,3.62-.33,.15-.47,.56-.31,.91l5.21,11.46Z"/></g></g></svg>