<svg id="Layer_1" data-name="Layer 1" xmlns="http://www.w3.org/2000/svg" viewBox="0 0 165.41 157.39"><defs><style>.cls-1{fill:#414042;}.cls-2{fill:#e6e7e8;stroke:#414042;stroke-miterlimit:10;stroke-width:3px;}</style></defs><rect class="cls-1" width="165.41" height="157.39" rx="28.29"/><circle class="cls-2" cx="55.85" cy="38.79" r="20.44"/><circle class="cls-2" cx="112.14" cy="40.89" r="20.44"/><path class="cls-2" d="M129.92,78.22C123.57,69.89,117.36,68,115.7,67.56c-8.43-2.27-15.72,1.23-17.78,2.22C85.26,75.86,81,89.54,78.81,96.44c-.62,2-9.37,30.86,2.22,39.12,6.22,4.42,11.7-1.77,28.89,0,15.79,1.61,18.92,7.62,24.45,4.88C146.71,134.33,144.72,97.65,129.92,78.22Z"/><path class="cls-2" d="M73.63,76.12C67.28,67.78,61.07,65.9,59.41,65.45,51,63.18,43.68,66.69,41.63,67.68,29,73.76,24.68,87.43,22.52,94.34c-.62,2-9.38,30.86,2.22,39.11,6.21,4.43,11.69-1.76,28.89,0,15.79,1.62,18.92,7.63,24.44,4.89C90.41,132.23,88.42,95.55,73.63,76.12Z"/></svg>