<?xml version="1.0" encoding="UTF-8"?><svg id="a" xmlns="http://www.w3.org/2000/svg" viewBox="0 0 126.7 125.8"><defs><style>.b{fill:#414042;stroke:#fff;stroke-miterlimit:10;stroke-width:3px;}</style></defs><circle class="b" cx="38.58" cy="21.94" r="20.44"/><circle class="b" cx="94.87" cy="24.04" r="20.44"/><path class="b" d="M112.65,61.37c-6.35-8.33-12.56-10.22-14.22-10.66-8.43-2.27-15.72,1.23-17.78,2.22-12.66,6.08-16.92,19.76-19.11,26.66-.62,2-9.37,30.86,2.22,39.12,6.22,4.42,11.7-1.77,28.89,0,15.79,1.61,18.92,7.62,24.45,4.88,12.34-6.11,10.35-42.79-4.45-62.22Z"/><path class="b" d="M56.36,59.27c-6.35-8.34-12.56-10.22-14.22-10.67-8.41-2.27-15.73,1.24-17.78,2.23-12.63,6.08-16.95,19.75-19.11,26.66-.62,2-9.38,30.86,2.22,39.11,6.21,4.43,11.69-1.76,28.89,0,15.79,1.62,18.92,7.63,24.44,4.89,12.34-6.11,10.35-42.79-4.44-62.22Z"/></svg>