<?xml version="1.0" encoding="utf-8"?>
<!-- Generator: Adobe Illustrator 26.1.0, SVG Export Plug-In . SVG Version: 6.00 Build 0)  -->
<svg version="1.1" id="a" xmlns="http://www.w3.org/2000/svg" xmlns:xlink="http://www.w3.org/1999/xlink" x="0px" y="0px"
	 viewBox="0 0 165.4 157.4" style="enable-background:new 0 0 165.4 157.4;" xml:space="preserve">
<style type="text/css">
	.st0{fill:#414042;}
	.st1{fill:#E6E7E8;}
	.st2{fill:#404041;}
</style>
<path class="st0" d="M28.3,0h108.8c15.6,0,28.3,12.7,28.3,28.3v100.8c0,15.6-12.7,28.3-28.3,28.3H28.3C12.7,157.4,0,144.7,0,129.1
	V28.3C0,12.7,12.7,0,28.3,0z"/>
<path class="st1" d="M82.7,148.8c79.5-62.6,76.5-84.7,76.5-102S144.9,8.6,121,8.6S82.7,34.1,82.7,34.1S68.4,8.6,44.4,8.6
	S6.2,29.5,6.2,46.8S3.2,86.3,82.7,148.8L82.7,148.8z"/>
<g>
	<path class="st2" d="M106,81.5v16c0,1.2-0.5,2.3-1.4,3.2s-2,1.4-3.3,1.4h-14v11.2c0,1.3-0.5,2.4-1.4,3.3c-0.9,0.9-2,1.3-3.2,1.3
		c-1.3,0-2.4-0.4-3.3-1.3c-0.9-0.9-1.4-2-1.4-3.3V102H63.9c-1.2,0-2.3-0.4-3.2-1.3c-0.9-0.9-1.4-2-1.4-3.3c0-1.3,0.4-2.4,1.3-3.3
		c0.9-0.9,2-1.3,3.3-1.3h32.6v-6.6H64.1c-1.3,0-2.4-0.4-3.3-1.3c-0.9-0.9-1.3-2-1.3-3.3V65.6c0-1.3,0.4-2.4,1.3-3.3
		c0.9-0.9,2-1.3,3.3-1.3h13.8V49.8c0-1.2,0.4-2.3,1.3-3.2c0.9-0.9,2-1.4,3.5-1.4c1.2,0,2.3,0.4,3.2,1.3c0.9,0.9,1.3,2,1.3,3.3V61
		h14.2c1.3,0,2.4,0.5,3.3,1.4c0.9,0.9,1.4,2,1.4,3.2c0,1.3-0.5,2.4-1.4,3.3c-0.9,0.9-2,1.4-3.3,1.4H68.8v6.6h32.5
		c1.3,0,2.4,0.5,3.3,1.4C105.5,79.2,106,80.3,106,81.5z"/>
</g>
</svg>
