<?xml version="1.0" encoding="UTF-8"?><svg id="a" xmlns="http://www.w3.org/2000/svg" viewBox="0 0 153.06 140.28"><defs><style>.b{fill:#e6e7e8;}.c{fill:#414042;}</style></defs><path class="c" d="M76.52,140.28c79.5-62.57,76.52-84.68,76.52-102.02S138.69,0,114.78,0s-38.26,25.51-38.26,25.51c0,0-14.35-25.51-38.26-25.51S.01,20.93,.01,38.26s-2.99,39.45,76.52,102.02h-.01Z"/><path class="b" d="M99.79,72.98v15.96c0,1.24-.47,2.32-1.4,3.24s-2.04,1.37-3.32,1.37h-14.04v11.24c0,1.28-.46,2.37-1.37,3.26-.91,.9-1.99,1.34-3.24,1.34-1.32,0-2.43-.45-3.35-1.34-.91-.9-1.37-1.98-1.37-3.26v-11.35h-13.93c-1.24,0-2.32-.45-3.24-1.34-.91-.9-1.37-1.98-1.37-3.26s.45-2.37,1.34-3.26,1.98-1.34,3.26-1.34h32.58v-6.64H57.88c-1.28,0-2.37-.44-3.26-1.32-.9-.88-1.34-1.97-1.34-3.29v-15.91c0-1.28,.45-2.37,1.34-3.26,.9-.9,1.98-1.34,3.26-1.34h13.82v-11.24c0-1.24,.43-2.32,1.29-3.24,.86-.91,2.02-1.37,3.48-1.37,1.24,0,2.31,.45,3.21,1.34,.9,.9,1.34,1.98,1.34,3.26v11.24h14.15c1.28,0,2.39,.46,3.32,1.37,.93,.91,1.4,1.99,1.4,3.24s-.47,2.39-1.4,3.32c-.93,.93-2.04,1.4-3.32,1.4H62.6v6.58h32.47c1.28,0,2.39,.46,3.32,1.37,.93,.92,1.4,1.99,1.4,3.24Z"/></svg>