<?xml version="1.0" encoding="utf-8"?>
<!-- Generator: Adobe Illustrator 26.1.0, SVG Export Plug-In . SVG Version: 6.00 Build 0)  -->
<svg version="1.1" id="Layer_1" xmlns="http://www.w3.org/2000/svg" xmlns:xlink="http://www.w3.org/1999/xlink" x="0px" y="0px"
	 viewBox="0 0 165.4 167.1" style="enable-background:new 0 0 165.4 167.1;" xml:space="preserve">
<style type="text/css">
	.st0{fill:#404041;}
	.st1{fill:#FFFFFF;}
</style>
<path class="st0" d="M137.1,6.9H28.3C12.7,6.9,0,19.5,0,35.1V136c0,15.6,12.7,28.3,28.3,28.3h108.8c15.6,0,28.3-12.7,28.3-28.3V35.1
	C165.4,19.5,152.7,6.9,137.1,6.9z"/>
<path class="st1" d="M82.5,11.2h-9.7c-20.4,0-36.9,16.5-36.9,36.9c0,0,0,0,0,0l0,0c-2.9,0-5.4,1.9-6.3,4.6l-16.8,52.9
	c-5.3,16.8,4,34.8,20.8,40.1c3.1,1,6.4,1.5,9.6,1.5h79c17.7,0,32-14.3,32-32c0-3.2-0.5-6.3-1.4-9.4l-16-52.2c-1-3.3-4.1-5.6-7.6-5.6
	l0,0c0-20.4-16.5-36.9-36.9-36.9c0,0,0,0,0,0H82.5"/>
<path class="st0" d="M113.9,48.1H51c0-11.9,9.6-21.5,21.5-21.5c0,0,0,0,0,0h19.9C104.3,26.6,113.9,36.2,113.9,48.1z"/>
<g>
	<path class="st0" d="M106.4,97.5v16c0,1.2-0.5,2.3-1.4,3.2s-2,1.4-3.3,1.4h-14v11.2c0,1.3-0.5,2.4-1.4,3.3c-0.9,0.9-2,1.3-3.2,1.3
		c-1.3,0-2.4-0.4-3.3-1.3c-0.9-0.9-1.4-2-1.4-3.3V118H64.4c-1.2,0-2.3-0.4-3.2-1.3c-0.9-0.9-1.4-2-1.4-3.3c0-1.3,0.4-2.4,1.3-3.3
		c0.9-0.9,2-1.3,3.3-1.3H97v-6.6H64.5c-1.3,0-2.4-0.4-3.3-1.3c-0.9-0.9-1.3-2-1.3-3.3V81.6c0-1.3,0.4-2.4,1.3-3.3
		c0.9-0.9,2-1.3,3.3-1.3h13.8V65.8c0-1.2,0.4-2.3,1.3-3.2c0.9-0.9,2-1.4,3.5-1.4c1.2,0,2.3,0.4,3.2,1.3c0.9,0.9,1.3,2,1.3,3.3V77
		h14.2c1.3,0,2.4,0.5,3.3,1.4c0.9,0.9,1.4,2,1.4,3.2c0,1.3-0.5,2.4-1.4,3.3c-0.9,0.9-2,1.4-3.3,1.4H69.2v6.6h32.5
		c1.3,0,2.4,0.5,3.3,1.4C106,95.2,106.4,96.3,106.4,97.5z"/>
</g>
</svg>
