<?xml version="1.0" encoding="UTF-8"?><svg id="a" xmlns="http://www.w3.org/2000/svg" viewBox="0 0 142.88 136"><defs><style>.b{fill:#fff;}.c{fill:#404041;}</style></defs><path class="c" d="M71.23,0h-9.75C41.13,0,24.62,16.5,24.62,36.86h0c-2.89,0-5.44,1.87-6.33,4.61L1.5,94.37c-5.33,16.83,3.99,34.8,20.83,40.13,3.11,.99,6.36,1.49,9.62,1.49H110.93c17.66-.01,31.96-14.33,31.95-31.99,0-3.17-.48-6.32-1.41-9.36l-16.05-52.18c-1.03-3.33-4.1-5.6-7.59-5.6h0C117.84,16.51,101.34,0,80.99,0c0,0-.01,0-.02,0h-9.74"/><path class="b" d="M102.67,36.87H39.79c0-11.88,9.63-21.51,21.51-21.51h19.91c11.86,.02,21.47,9.64,21.47,21.51Z"/><path class="b" d="M95.17,86.31v15.96c0,1.24-.47,2.32-1.4,3.24s-2.04,1.37-3.32,1.37h-14.04v11.24c0,1.28-.46,2.37-1.37,3.26-.91,.9-1.99,1.34-3.24,1.34-1.32,0-2.43-.45-3.35-1.34-.91-.9-1.37-1.98-1.37-3.26v-11.35h-13.93c-1.24,0-2.32-.45-3.24-1.34-.91-.9-1.37-1.98-1.37-3.26s.45-2.37,1.34-3.26,1.98-1.34,3.26-1.34h32.58v-6.64H53.27c-1.28,0-2.37-.44-3.26-1.32-.9-.88-1.34-1.97-1.34-3.29v-15.91c0-1.28,.45-2.37,1.34-3.26,.9-.9,1.98-1.34,3.26-1.34h13.82v-11.24c0-1.24,.43-2.32,1.29-3.24,.86-.91,2.02-1.37,3.48-1.37,1.24,0,2.31,.45,3.21,1.34,.9,.9,1.34,1.98,1.34,3.26v11.24h14.15c1.28,0,2.39,.46,3.32,1.37,.93,.91,1.4,1.99,1.4,3.24s-.47,2.39-1.4,3.32c-.93,.93-2.04,1.4-3.32,1.4H57.99v6.58h32.47c1.28,0,2.39,.46,3.32,1.37,.93,.92,1.4,1.99,1.4,3.24Z"/></svg>